<?xml version="1.0" encoding="UTF-8"?> <!-- Generator: Adobe Illustrator 22.0.1, SVG Export Plug-In . SVG Version: 6.00 Build 0) --> <svg xmlns="http://www.w3.org/2000/svg" xmlns:xlink="http://www.w3.org/1999/xlink" id="Layer_1" x="0px" y="0px" viewBox="0 0 648.2 155.3" style="enable-background:new 0 0 648.2 155.3;" xml:space="preserve"> <style type="text/css"> .st0{fill:#2E6CC6;} .st1{fill:#46BF00;} </style> <g> <path class="st0" d="M66.4,28.4c-2.3-3.7-5.5-6.7-9.6-9.1c-4.1-2.4-8.8-3.5-13.9-3.5c-2.3,0-4.6,0.3-6.8,0.7 c-2.3,0.5-4.3,1.3-6.1,2.3c-1.8,1.1-3.2,2.4-4.3,4.1c-1.1,1.6-1.6,3.7-1.6,6.1c0,4.3,1.9,7.4,5.8,9.5c3.8,2.1,9.6,4,17.3,5.7 c4.8,1.1,9.3,2.5,13.5,4.1c4.1,1.6,7.7,3.5,10.8,5.9c3.1,2.3,5.4,5.2,7.2,8.4c1.7,3.3,2.6,7.1,2.6,11.5c0,6-1.1,11-3.4,15.2 c-2.3,4.1-5.3,7.5-9.1,10.1c-3.8,2.6-8.1,4.5-12.9,5.7c-4.8,1.1-9.8,1.7-15,1.7c-7.7,0-15.2-1.5-22.5-4.5 c-7.3-3-13.4-7.5-18.3-13.7l14.3-12.2c2.7,4,6.4,7.3,11.2,10c4.8,2.7,10,4.1,15.7,4.1c2.6,0,5-0.2,7.4-0.7c2.3-0.5,4.5-1.3,6.4-2.5 c1.9-1.1,3.5-2.6,4.6-4.5c1.1-1.8,1.7-4.2,1.7-7.1c0-4.7-2.2-8.2-6.7-10.5C50.1,63.1,43.5,61,34.8,59c-3.4-0.9-6.9-1.9-10.4-3.1 c-3.5-1.2-6.7-2.9-9.5-5c-2.9-2.1-5.2-4.8-6.9-8C6.2,39.6,5.3,35.7,5.3,31c0-5.4,1.1-10.1,3.3-14c2.2-3.9,5.1-7.1,8.7-9.6 c3.6-2.5,7.6-4.3,12.2-5.6C34,0.6,38.7,0,43.6,0c7.3,0,14.3,1.4,21,4.3c6.8,2.9,12,7,15.7,12.4L66.4,28.4z"></path> <path class="st0" d="M126.7,155.3h-20.1V2.8h19.7v15.8h0.6c3.3-5.4,8.1-9.9,14.4-13.4C147.6,1.7,155,0,163.3,0 c7.5,0,14.4,1.4,20.6,4.1c6.2,2.7,11.5,6.5,16,11.3c4.5,4.8,7.9,10.5,10.3,17c2.4,6.5,3.6,13.4,3.6,20.8c0,7.4-1.2,14.4-3.6,20.9 c-2.4,6.6-5.8,12.3-10.2,17.1c-4.4,4.8-9.7,8.7-16,11.4c-6.3,2.8-13.3,4.2-21.1,4.2c-7.2,0-14.1-1.6-20.5-4.7 c-6.4-3.1-11.4-7.5-15.1-13.2h-0.6V155.3z M193.3,53.2c0-4.7-0.7-9.3-2.1-13.7c-1.4-4.4-3.6-8.3-6.4-11.8 c-2.9-3.4-6.4-6.1-10.6-8.1c-4.2-2-9.1-3-14.6-3c-5.1,0-9.8,1-14,3c-4.2,2-7.8,4.7-10.8,8.1c-3,3.4-5.3,7.3-6.9,11.8 c-1.6,4.4-2.5,9-2.5,13.9c0,4.8,0.8,9.5,2.5,13.9c1.6,4.4,4,8.3,6.9,11.6c3,3.3,6.6,6,10.8,8c4.2,2,8.9,3,14,3 c5.6,0,10.4-1,14.6-3.1c4.2-2.1,7.7-4.8,10.6-8.2c2.8-3.4,5-7.3,6.4-11.8C192.6,62.5,193.3,57.9,193.3,53.2z"></path> <path class="st0" d="M241.8,14.1c-0.1-4.3-0.4-8-0.6-11.3h19c0.3,2.6,0.5,5.5,0.6,8.9c0.1,3.3,0.2,6.1,0.2,8.2h0.6 c2.8-6,7-10.8,12.5-14.4c5.5-3.6,11.6-5.4,18.5-5.4c3.1,0,5.8,0.3,7.9,0.9l-0.9,18.6c-2.9-0.7-5.9-1.1-9.2-1.1 c-4.8,0-9,0.9-12.6,2.7c-3.6,1.8-6.5,4.2-8.9,7.2c-2.3,3-4.1,6.4-5.2,10.4c-1.1,3.9-1.7,8-1.7,12.3V104h-20.1V24.6 C242.1,21.9,242,18.4,241.8,14.1z"></path> <path class="st0" d="M493.5,104h-21.8L430.5,2.8h22.2l29.7,79.7h0.4l29.9-79.7h21.4L493.5,104z"></path> <path class="st0" d="M648.2,52.6c0,1.1,0,2.3,0,3.4c0,1.1-0.1,2.3-0.2,3.4h-80.5c0.1,4.2,1.1,8.2,2.9,12c1.8,3.7,4.2,7,7.2,9.8 c3,2.8,6.4,4.9,10.4,6.5c3.9,1.6,8.1,2.3,12.5,2.3c6.8,0,12.7-1.5,17.7-4.5c5-3,8.9-6.6,11.8-10.9l14.1,11.3 c-5.4,7.2-11.8,12.5-19.1,15.9c-7.3,3.4-15.5,5.1-24.5,5.1c-7.7,0-14.8-1.3-21.4-3.8c-6.6-2.6-12.2-6.2-16.9-10.8 c-4.7-4.6-8.4-10.2-11.1-16.8c-2.7-6.5-4.1-13.8-4.1-21.8c0-7.8,1.3-15.1,4-21.7c2.6-6.6,6.3-12.3,11-17c4.7-4.7,10.3-8.4,16.7-11 c6.4-2.6,13.3-4,20.8-4c7.4,0,14.2,1.2,20.2,3.6c6.1,2.4,11.2,5.9,15.4,10.5c4.2,4.6,7.5,10.1,9.7,16.6 C647,37.1,648.2,44.4,648.2,52.6z M627.7,44.4c-0.1-4-0.8-7.7-2-11.2c-1.2-3.5-3-6.5-5.3-9.1c-2.3-2.6-5.3-4.6-8.8-6.1 c-3.5-1.5-7.6-2.2-12.3-2.2c-4.3,0-8.3,0.7-12.1,2.2c-3.8,1.5-7.1,3.5-9.8,6.1s-5.1,5.6-6.8,9.1c-1.8,3.5-2.8,7.2-3.1,11.2H627.7z"></path> <path class="st1" d="M423.8,31.7c-2.8-6.5-6.6-12.1-11.5-16.8c-4.9-4.7-10.7-8.4-17.4-11c-6.7-2.6-13.9-4-21.6-4h-54.5v58l0.2-0.3 c0.4,6.1,1.8,11.8,4,17.1c2.8,6.6,6.6,12.2,11.4,17c4.8,4.8,10.6,8.5,17.3,11.1c6.7,2.6,13.9,4,21.6,4s14.9-1.3,21.6-4 c6.7-2.6,12.5-6.3,17.4-11.1c4.9-4.8,8.8-10.4,11.5-17c2.8-6.5,4.2-13.7,4.2-21.6C428,45.4,426.6,38.2,423.8,31.7z M401,27.5 c-14.1,13.1-25.4,32.5-31.2,53.1l-0.3,1l-9.4,1.1l-0.4-1.1c-3.4-9.3-7.3-17-12.4-24.3l-0.9-1.3l7.2-4.9l0.8,1.3 c3.9,5.8,7.3,12.4,9.9,18.8c6.3-19,17.7-37.9,30.2-50.1l1-1l6.7,6.2L401,27.5z"></path> </g> </svg> 